<?xml version="1.0" encoding="UTF-8"?>
<svg id="Layer_1" data-name="Layer 1" xmlns="http://www.w3.org/2000/svg" viewBox="0 0 447.91 206.65">
  <defs>
    <style>
      .cls-1 {
        fill: #221e1f;
      }

      .cls-2 {
        fill: none;
      }
    </style>
  </defs>
  <g>
    <path class="cls-1" d="m445.15,152.27c1.89,0,2.54.76,2.53,2.79-.1,15.25.14,30.5-.18,45.74-.01.53-.02,1.08.04,1.62-.18,3.75-.16,4.15-3.75,4.06-3.66-.08-7.32.04-10.98.04-137.06,0-274.11,0-411.17,0-3.27,0-6.54.08-9.81.1-1,0-1.58.34-1.58-1.61,0-.74-.12-1.97-.1-3.02.26-14.55.33-29.1.18-43.64-.02-1.97-.38-4.14.88-5.27,1.06-.95,3.05-.63,4.98-.63,5.06,0,10.13.08,15.18-.07,1.85-.06,2.2.56,2.18,2.23-.08,8.28-.04,16.56-.05,24.83,0,3.17.36,3.43,3.51,3.31,3.19-.12,6.38-.03,9.58-.03,123.51,0,247.01,0,370.52,0,1.63,0,3.23.07,4.88.07,1.16,0,2.25-.16,2.24-1.84-.07-7.89-.04-15.79-.04-23.69,0-.15,0-.31,0-.46-.29-4.51-.29-4.45,4.4-4.41"/>
    <path class="cls-1" d="m150.34,21.4c4.98,0,9.96.02,14.94,0,8.94-.05,17.77,1.2,26.07,4.28,6.29,2.34,11.68,6.37,15.11,12.66,2.33,4.28,3.38,8.9,3.48,13.44.13,5.97-.53,12.02-3.97,17.43-3.36,5.28-7.44,9.7-13.06,12.5-2.45,1.22-.84,2.08-.1,3.18,5.47,8.17,10.9,16.37,16.39,24.53,4.19,6.22,8.44,12.4,12.68,18.59.38.56,1.21,1.25.69,1.78-.44.44-1.14.26-1.73.23-9.8-.49-19.59.21-29.39.08-1.69-.02-2.45-.78-3.19-2.06-5.59-9.69-11.22-19.36-16.86-29.02-1.2-2.06-2.53-4.06-3.71-6.14-.82-1.44-1.91-1.96-3.59-1.92-4.89.11-4.91.05-4.92,5.03-.02,10.53-.06,21.05.03,31.58.02,1.93-.54,2.61-2.5,2.51-7.62-.38-15.24,0-22.86.02-.7,0-1.44.08-2.08.07-2.71-.02-2.77-.82-2.7-2.19.78-16.6.2-33.2.3-49.79.1-17.49-.03-34.98-.07-52.48,0-.39,0-.77,0-1.16-.15-3.16-.15-3.15,3.08-3.14,5.99,0,11.99,0,17.98,0Zm13.68,22.68c-1.01,0-1.65-.08-2.56-.02-1.89.13-2.4.44-2.31,2.27.15,3.01.03,6.03.02,9.04-.01,3.67,0,7.33-.32,10.99-.08.89.34,1.99,2.23,1.97,1.17-.01,2.46-.11,3.71-.09,2.37.04,4.74-.07,6.95-.96,4.43-1.78,6.95-4.79,7.71-9.8.78-5.14-1.38-9.77-5.66-11.61-3.22-1.39-6.54-1.91-9.77-1.8Z"/>
    <path class="cls-1" d="m399.69,38.63c.16,1.73-1.25,3.43-2.36,4.75-4.53,5.38-8.32,11.29-12.42,16.96-9.72,13.46-19.12,27.15-28.68,40.73-.79,1.12-1.76,2.12-2.65,3.17-.43.51-.88.82-.66,1.53s.92.59,1.48.59c4.28,0,8.56-.09,12.85-.1,9.97-.03,19.93-.03,29.9-.02.54,0,1.68-.03,2.23-.04,1.23-.01,1.32.27,1.33,1.34.05,6.65-.04,13.29-.01,19.94,0,1.94-.64,2.64-2.7,2.6-21.33-.46-42.67-.18-64-.23-5.45-.01-10.89.08-16.34.21-1.5.04-1.95-.37-1.92-1.92.1-5.26.09-10.53-.03-15.79-.05-2.02,1.47-2.93,2.46-4.18,2.66-3.39,4.74-7.15,7.23-10.64,5.1-7.13,10.29-14.19,15.3-21.38,5.71-8.19,11.66-16.22,17.18-24.54,1.19-1.8,2.73-3.2,3.88-5.13.38-.49.51-.88-.34-.92-13.31-.01-26.63-.02-39.94-.04-1,0-1.93.05-2.98.05-1.55,0-1.76-.56-1.72-.98,0,0,.04-.25,0-.58-.04-6.26-.05-12.52-.14-18.78-.05-3.83-.11-3.81,4.05-3.81,24.27,0,48.55-.02,72.82-.04.54,0,1.09,0,1.63,0q4.57.05,4.45,4.45"/>
    <path class="cls-1" d="m302.17,113.05c0,3.17-.13,6.36.05,9.52.12,2.02-.62,3.07-2.46,3.79-4.79,1.87-9.67,3.37-14.77,4.16-6.08.94-12.16,1.57-18.32,1.17-8.71-.56-17-2.64-24.66-6.91-6.12-3.41-10.84-8.32-14.24-14.27-3.07-5.36-4.97-11.26-6.42-17.3-2.03-8.41-1.7-16.97-1.28-25.43.56-11.24,4.85-21.44,11.91-30.15,5.77-7.13,13.14-12.38,22.24-14.94,4.58-1.29,9.22-1.88,13.94-2.33,11-1.05,21.49,1.11,31.78,4.67,1.56.54,3.01,1.39,4.54,2.03,1.68.7,1.72,1.76,1.13,3.31-2.3,6.08-4.45,12.21-6.75,18.29-.54,1.43-1.49,2.43-3.39,1.62-5.76-2.44-11.72-4.29-17.84-5.66-8.95-2-18.38,2.41-22.68,10.47-4.34,8.14-5.04,16.87-4.56,25.76.24,4.5.8,9.07,2.8,13.26,3.53,7.39,8.99,12.7,17.39,13.53,8,.78,15.8-.96,23.28-3.93,2.25-.89,4.57-1.61,6.76-2.61,1.41-.65,1.58-.17,1.57,1.05-.03,3.64,0,7.28-.01,10.92Z"/>
    <path class="cls-1" d="m112.45,73.9c0,15.25.02,30.51,0,45.76-.01,9.18-1.5,18.2-5.3,26.51-2.33,5.08-6.4,9.27-11.36,12.33-8.5,5.23-17.9,6.33-27.59,5.87-3.09-.15-6.15-.9-9.23-1.35-1.1-.16-1.1-.96-1.1-1.73-.01-6.74,0-13.47,0-20.21,0-2.13,1.64-1.48,2.44-1.14,3.01,1.25,6.13,1.08,9.26,1.3,5.3.37,10.38-4.09,11.65-9.26,1.45-5.87,1.43-11.83,1.44-17.78.02-29.27-.04-58.54-.07-87.81,0-.85-.07-1.76-.07-2.53,0-3.33.37-2.44,1.98-2.44,8.64,0,17.29.05,25.93-.03,1.38-.01,1.72.72,1.97,1.65.17.65.07,1.38.07,2.08,0,16.26,0,32.52,0,48.78Z"/>
    <path class="cls-1" d="m435.53,130.06c-5.89-.02-11.41-5.66-11.41-11.6,0-7.15,6.33-11.81,11.78-12.04,6.45-.28,12.26,5.66,12.01,12.17-.26,6.56-4.39,11.33-12.37,11.47Z"/>
  </g>
  <rect class="cls-2" width="444.9" height="195.23"/>
</svg>